HIERARCHY
ROOT Bip001_Pelvis
{
  OFFSET 34.4345 95.6767 -26.8758
  CHANNELS 6 Xposition Yposition Zposition Zrotation Xrotation Yrotation
  JOINT Bip001_Spine
  {
    OFFSET 1.4188e-005 10.2191 -0.0116013
    CHANNELS 3 Zrotation Xrotation Yrotation
    JOINT Bip001_L_Thigh
    {
      OFFSET 11.0458 -10.2192 0.0116197
      CHANNELS 3 Zrotation Xrotation Yrotation
      JOINT Bip001_L_Calf
      {
        OFFSET -0.707118 -44.0221 0.360014
        CHANNELS 3 Zrotation Xrotation Yrotation
        JOINT Bip001_L_Foot
        {
          OFFSET -0.651902 -40.5938 -3.56146
          CHANNELS 3 Zrotation Xrotation Yrotation
          JOINT Bip001_L_Toe0
          {
            OFFSET 0.0530839 -10.2181 13.1504
            CHANNELS 3 Zrotation Xrotation Yrotation
            End Site
            {
              OFFSET -1.02532e-005 0 7.55606
            }
          }
        }
      }
    }
    JOINT Bip001_R_Thigh
    {
      OFFSET -11.0458 -10.2191 0.0115893
      CHANNELS 3 Zrotation Xrotation Yrotation
      JOINT Bip001_R_Calf
      {
        OFFSET 0.706994 -44.0221 0.35984
        CHANNELS 3 Zrotation Xrotation Yrotation
        JOINT Bip001_R_Foot
        {
          OFFSET 0.651786 -40.5938 -3.5613
          CHANNELS 3 Zrotation Xrotation Yrotation
          JOINT Bip001_R_Toe0
          {
            OFFSET -0.0531479 -10.2181 13.1504
            CHANNELS 3 Zrotation Xrotation Yrotation
            End Site
            {
              OFFSET -1.02894e-005 0 7.55606
            }
          }
        }
      }
    }
    JOINT Bip001_Spine1
    {
      OFFSET 1.87041e-005 14.5736 1.08638
      CHANNELS 3 Zrotation Xrotation Yrotation
      JOINT Bip001_Spine2
      {
        OFFSET 2.24614e-005 14.5058 -1.69078
        CHANNELS 3 Zrotation Xrotation Yrotation
        JOINT Bip001_Neck
        {
          OFFSET 2.20278e-005 15.3945 -0.489414
          CHANNELS 3 Zrotation Xrotation Yrotation
          JOINT Bip001_L_Clavicle
          {
            OFFSET 6.06036 -0.000579998 0.00836775
            CHANNELS 3 Zrotation Xrotation Yrotation
            JOINT Bip001_L_UpperArm
            {
              OFFSET 11.5509 -0.0600302 0.00193952
              CHANNELS 3 Zrotation Xrotation Yrotation
              JOINT Bip001_L_Forearm
              {
                OFFSET 25.9523 0.0806089 -2.15551
                CHANNELS 3 Zrotation Xrotation Yrotation
                JOINT Bip001_L_Hand
                {
                  OFFSET 32.2475 0.153767 1.63968
                  CHANNELS 3 Zrotation Xrotation Yrotation
                  JOINT Bip001_L_Finger0
                  {
                    OFFSET 6.04639 -2.20976 5.90322
                    CHANNELS 3 Zrotation Xrotation Yrotation
                    End Site
                    {
                      OFFSET 4.22375 -1.43895 0.606485
                    }
                  }
                  JOINT Bip001_L_Finger1
                  {
                    OFFSET 11.0826 -0.704819 -0.198153
                    CHANNELS 3 Zrotation Xrotation Yrotation
                    End Site
                    {
                      OFFSET 6.20027 -0.397518 -0.0787166
                    }
                  }
                }
              }
            }
          }
          JOINT Bip001_R_Clavicle
          {
            OFFSET -6.06037 -0.000563197 0.00835105
            CHANNELS 3 Zrotation Xrotation Yrotation
            JOINT Bip001_R_UpperArm
            {
              OFFSET -11.5509 -0.0599978 0.00190698
              CHANNELS 3 Zrotation Xrotation Yrotation
              JOINT Bip001_R_Forearm
              {
                OFFSET -25.9523 0.0806822 -2.15589
                CHANNELS 3 Zrotation Xrotation Yrotation
                JOINT Bip001_R_Hand
                {
                  OFFSET -32.2475 0.153859 1.63989
                  CHANNELS 3 Zrotation Xrotation Yrotation
                  JOINT Bip001_R_Finger0
                  {
                    OFFSET -6.04641 -2.20976 5.90317
                    CHANNELS 3 Zrotation Xrotation Yrotation
                    End Site
                    {
                      OFFSET -4.22376 -1.43895 0.60647
                    }
                  }
                  JOINT Bip001_R_Finger1
                  {
                    OFFSET -11.0826 -0.704794 -0.198182
                    CHANNELS 3 Zrotation Xrotation Yrotation
                    End Site
                    {
                      OFFSET -6.20028 -0.397504 -0.0787333
                    }
                  }
                }
              }
            }
          }
          JOINT Bip001_Head
          {
            OFFSET 1.09673e-005 11.2744 2.05948
            CHANNELS 3 Zrotation Xrotation Yrotation
            End Site
            {
              OFFSET 2.89576e-005 20.8808 -2.77728e-005
            }
          }
        }
      }
    }
  }
}
MOTION
Frames:	9
Frame Time:	0.04
30.8703 95.714 -29.6972 0.175148 -1.74022 -4.16948 0.0413105 2.13604 -0.388394 6.40004 1.24305 13.3997 0.420588 5.97591 -0.722092 -0.160693 -3.60321 0.0125918 0.781222 -4.66015 -0.00855419 -3.15098 -2.96264 -0.359297 0.850008 11.5957 -0.346729 -5.832 -9.88198 0.34312 1.92728 -6.74014 2.15995 0.0934791 4.26446 -0.778623 0.0893879 4.26446 -0.77862 4.15462 -1.96892 2.39224 -26.1656 5.24493 -6.26721 -50.8943 39.4692 0.333603 15.35 -4.11922 -28.9323 7.95229 0.514298 -4.44825 -1.76556e-031 -3.18055e-015 -3.18055e-015 3.18055e-015 0 -3.18055e-015 22.4046 7.75776 14.4739 60.1258 26.3761 -8.423 -22.0233 10.8372 12.0085 5.98563 -7.78765 3.02171 -7.95139e-016 6.36111e-015 7.95139e-016 1.59028e-015 3.18056e-015 2.38542e-015 -3.04427 -2.8827 4.11856 
30.7062 95.6867 -29.6392 0.044686 -2.00497 -4.59497 0.0444458 2.14725 -0.470041 6.60815 1.63176 13.5835 0.347468 6.03632 -0.541864 -0.009983 -3.57238 0.0125914 0.897546 -4.95008 -0.0608211 -2.96843 -2.77915 0.150291 0.930747 11.6974 -0.408389 -5.87067 -9.98822 0.380623 1.9248 -6.71163 2.15969 0.0953586 4.2941 -0.942532 0.0972365 4.29412 -0.942561 4.16284 -1.57199 2.74218 -25.9479 4.99375 -6.66439 -51.7148 40.9354 0.869023 16.0352 -2.64982 -28.3179 8.03485 0.646794 -4.73921 0 3.18055e-015 -0 0 3.18056e-015 -0 22.5667 7.25416 14.2169 60.5105 25.9258 -7.88356 -20.1404 8.54769 10.0113 6.65769 -8.22017 1.32161 1.39149e-015 3.18055e-015 7.95139e-016 2.18663e-015 -3.18056e-015 7.95139e-016 -3.1281 -3.13227 4.49237 
30.5698 95.6792 -29.4971 -0.120293 -2.25172 -4.79964 0.0483949 2.17619 -0.567786 6.87644 2.06446 13.3065 0.175308 5.99644 0.0209034 -0.239544 -3.73343 0.0125937 0.799369 -4.83234 -0.0145304 -2.79607 -2.38869 -0.0652261 0.890549 11.5293 -0.349212 -5.77676 -10.0721 0.827224 1.91617 -6.68196 2.1576 0.118876 4.35176 -1.13866 0.118459 4.35182 -1.13866 4.04584 -1.53017 3.06491 -25.7673 5.04864 -6.84527 -52.4998 42.0621 1.40577 16.4721 -1.95027 -27.822 7.32133 0.818533 -4.87116 -3.18055e-015 3.18055e-015 3.18055e-015 0 3.18056e-015 -0 22.6508 6.9064 13.4216 61.2228 22.8501 -7.46803 -20.2852 7.09905 9.74595 7.98054 -7.68331 1.74065 1.59028e-015 9.54166e-015 7.95139e-016 1.98785e-016 6.36111e-015 5.96354e-016 -3.19394 -2.99445 4.79236 
30.4533 95.6902 -29.3255 -0.380438 -2.31602 -4.74141 0.0727874 2.18209 -0.658528 7.1285 2.27496 13.5802 0.258529 5.94169 -0.397278 -0.132718 -3.66566 0.0125927 0.830629 -5.04859 0.0123376 -2.45726 -1.92607 -0.188882 0.766584 10.9914 -0.383293 -5.67868 -9.92274 1.00228 1.86927 -6.57593 2.15827 0.17093 4.36656 -1.32128 0.170932 4.36662 -1.32128 3.95899 -1.27758 3.19542 -25.6762 4.86993 -7.05894 -53.1986 42.2441 2.13074 16.5601 -1.7439 -27.6972 6.73148 0.920506 -4.85541 -3.18055e-015 -3.18055e-015 -0 1.76556e-031 -6.36111e-015 1.59028e-015 22.6836 6.34864 12.5995 62.0101 20.6709 -8.08407 -21.3332 8.00408 10.9413 7.36635 -7.47392 3.06933 -1.59028e-015 0 3.97569e-016 -3.18055e-015 0 -0 -3.32443 -3.25566 4.92781 
30.4329 95.7136 -29.1433 -0.478646 -2.31844 -4.47175 0.069525 2.16907 -0.785602 7.2037 2.48348 13.8094 0.349755 5.70089 -0.74205 -0.359955 -3.68598 0.012593 0.733465 -4.96626 0.064672 -2.30946 -1.44557 -0.349153 0.674218 10.3817 -0.381557 -5.60908 -9.77005 1.07104 1.86039 -6.52477 2.11241 0.167468 4.33699 -1.57536 0.170809 4.33699 -1.57549 3.87941 -0.954993 3.35859 -25.5152 4.56291 -7.09094 -54.1447 41.9997 3.11267 16.4505 -1.85298 -27.7917 6.90023 0.889874 -4.74949 1.76556e-031 6.36111e-015 -1.59028e-015 8.82782e-032 3.18056e-015 -1.59028e-015 22.6 5.69722 11.7574 62.2466 17.6586 -9.23195 -22.5883 10.252 13.8478 6.43381 -7.48251 4.93263 1.19271e-015 3.18055e-015 -0 1.19271e-015 -3.18056e-015 7.95139e-016 -3.41034 -3.72305 5.08682 
30.5085 95.724 -29.0036 -0.426424 -2.24357 -4.28171 0.0413603 2.10982 -0.885965 7.09731 2.65301 14.0523 0.394215 5.4 -1.05223 -0.345826 -3.56506 0.0125913 0.73547 -4.94756 0.0613846 -2.35682 -1.2204 -0.514247 0.612416 10.1175 -0.412774 -5.55842 -9.7477 1.17043 1.88584 -6.61166 2.14618 0.115212 4.21876 -1.77476 0.115577 4.21877 -1.77503 3.68211 -0.737467 3.58338 -25.2948 4.33081 -6.96877 -55.0461 41.56 4.11953 16.1059 -2.12772 -27.8145 7.33818 0.802657 -4.81019 -3.18055e-015 3.18055e-015 -0 0 0 -1.59028e-015 22.7821 5.30981 11.3751 64.7949 21.1181 -13.3704 -26.0427 6.81149 16.9283 4.88326 -8.57957 5.5812 1.59028e-015 6.36111e-015 1.59028e-015 1.59028e-015 6.36111e-015 1.59028e-015 -3.38113 -3.673 5.25225 
30.6088 95.7176 -28.957 -0.470325 -2.14198 -4.27743 0.0287883 2.08702 -0.882461 7.19249 2.50034 13.4565 0.200198 5.65119 -0.440948 -0.23183 -3.70852 0.0125933 0.74456 -4.93842 0.0396304 -2.32532 -1.20559 -0.413667 0.591081 9.97935 -0.490173 -5.63818 -9.67847 1.09101 1.95846 -6.82629 2.20129 0.0887768 4.17319 -1.76799 0.0887513 4.1732 -1.7678 3.46777 -0.940056 3.87199 -25.2611 4.5186 -6.68092 -55.4779 41.2747 4.97479 15.9915 -2.14098 -27.8648 7.49163 0.591727 -4.79453 -6.36111e-015 -3.18055e-015 4.77083e-015 -0 0 1.59028e-015 23.4487 5.50991 11.314 64.7602 19.4559 -16.9978 -28.5713 5.52292 22.3826 0.116862 -7.84017 5.03974 -3.18055e-015 -6.36111e-015 -1.59028e-015 -2.64834e-031 -3.18056e-015 -4.77083e-015 -3.41104 -3.13369 5.486 
30.7513 95.6856 -28.953 -0.509076 -2.03772 -4.19319 0.00977447 2.09195 -0.813681 7.39157 1.96958 13.8828 0.0211827 6.56018 -0.891524 -0.101941 -4.24385 0.0126015 0.777923 -4.82525 -0.00984724 -2.34026 -1.36021 -0.800013 0.542351 10.09 -0.562399 -5.6084 -9.72667 1.25273 2.04028 -7.10771 2.32019 0.049486 4.19036 -1.62936 0.0494859 4.19039 -1.62936 2.99986 -1.50897 4.29221 -24.8381 5.03145 -6.26316 -55.3783 41.4518 5.21696 16.2006 -1.51898 -27.8113 7.10758 0.549593 -4.77226 -6.36111e-015 3.18055e-015 -0 -3.18055e-015 3.18056e-015 -0 24.2672 5.99239 11.1318 63.4136 12.5046 -19.8362 -34.012 6.63407 30.3348 -4.95511 -7.07094 5.51752 6.36111e-015 0 -6.36111e-015 6.36111e-015 -3.18056e-015 -9.54166e-015 -3.34251 -2.69542 5.73345 
30.9691 95.6699 -28.9672 -0.473532 -1.94637 -3.65727 -0.0449713 2.09572 -0.72924 7.69338 1.251 13.5476 -0.374042 7.73481 -0.715001 -0.803894 -5.43965 0.0126238 0.57632 -4.14856 0.0924553 -2.42596 -1.3594 -1.1553 0.563614 10.0306 -0.699847 -5.62608 -9.66638 1.07678 2.13227 -7.38646 2.40064 -0.063291 4.19186 -1.4583 -0.0632906 4.19186 -1.4583 2.7066 -1.68407 4.77639 -24.4632 5.30398 -6.42028 -55.237 41.3133 5.63975 16.402 -0.978217 -27.923 6.91643 0.829758 -4.66434 3.18055e-015 3.18055e-015 -0 3.18055e-015 6.36111e-015 -0 24.4948 5.73642 10.0843 60.1969 1.61396 -21.0727 -37.7913 5.12378 40.7927 -11.6904 -7.73616 4.58909 -4.77083e-015 6.36111e-015 -0 -3.18055e-015 6.36111e-015 3.18055e-015 -3.5845 -2.98035 6.16494 
